<?xml version="1.0" encoding="utf-8"?>
<!-- Generated by IcoMoon.io -->
<!DOCTYPE svg PUBLIC "-//W3C//DTD SVG 1.1//EN" "http://www.w3.org/Graphics/SVG/1.1/DTD/svg11.dtd">
<svg version="1.1" xmlns="http://www.w3.org/2000/svg" xmlns:xlink="http://www.w3.org/1999/xlink" width="64" height="64" viewBox="0 0 48 48">
<path fill="#ffffff" d="M7.839 22.696l-4.571 4.571q-0.179 0.161-0.411 0.161-0.214 0-0.411-0.161-0.161-0.179-0.161-0.411t0.161-0.411l4.571-4.571q0.179-0.161 0.411-0.161t0.411 0.161q0.161 0.179 0.161 0.411t-0.161 0.411zM10.857 23.429v5.714q0 0.25-0.161 0.411t-0.411 0.161-0.411-0.161-0.161-0.411v-5.714q0-0.25 0.161-0.411t0.411-0.161 0.411 0.161 0.161 0.411zM6.857 19.429q0 0.25-0.161 0.411t-0.411 0.161h-5.714q-0.25 0-0.411-0.161t-0.161-0.411 0.161-0.411 0.411-0.161h5.714q0.25 0 0.411 0.161t0.161 0.411zM29.429 21.714q0 2.143-1.518 3.625l-2.625 2.607q-1.482 1.482-3.625 1.482-2.161 0-3.643-1.518l-5.964-5.982q-0.375-0.375-0.75-1l4.268-0.321 4.875 4.893q0.482 0.482 1.214 0.491t1.214-0.473l2.625-2.607q0.5-0.5 0.5-1.196 0-0.714-0.5-1.214l-4.893-4.911 0.321-4.268q0.625 0.375 1 0.75l6 6q1.5 1.536 1.5 3.643zM18.411 8.786l-4.268 0.321-4.875-4.893q-0.5-0.5-1.214-0.5-0.696 0-1.214 0.482l-2.625 2.607q-0.5 0.5-0.5 1.196 0 0.714 0.5 1.214l4.893 4.893-0.321 4.286q-0.625-0.375-1-0.75l-6-6q-1.5-1.536-1.5-3.643 0-2.143 1.518-3.625l2.625-2.607q1.482-1.482 3.625-1.482 2.161 0 3.643 1.518l5.964 5.982q0.375 0.375 0.75 1zM29.714 10.286q0 0.25-0.161 0.411t-0.411 0.161h-5.714q-0.25 0-0.411-0.161t-0.161-0.411 0.161-0.411 0.411-0.161h5.714q0.25 0 0.411 0.161t0.161 0.411zM20 0.571v5.714q0 0.25-0.161 0.411t-0.411 0.161-0.411-0.161-0.161-0.411v-5.714q0-0.25 0.161-0.411t0.411-0.161 0.411 0.161 0.161 0.411zM27.268 3.268l-4.571 4.571q-0.196 0.161-0.411 0.161t-0.411-0.161q-0.161-0.179-0.161-0.411t0.161-0.411l4.571-4.571q0.179-0.161 0.411-0.161t0.411 0.161q0.161 0.179 0.161 0.411t-0.161 0.411z"></path>
</svg>
