<?xml version="1.0" encoding="utf-8"?>
<!-- Generated by IcoMoon.io -->
<!DOCTYPE svg PUBLIC "-//W3C//DTD SVG 1.1//EN" "http://www.w3.org/Graphics/SVG/1.1/DTD/svg11.dtd">
<svg version="1.1" xmlns="http://www.w3.org/2000/svg" xmlns:xlink="http://www.w3.org/1999/xlink" width="39" height="42" viewBox="0 0 39 42">
<path fill="#ffffff" d="M10.289 29.789l-6 6q-0.234 0.211-0.539 0.211-0.281 0-0.539-0.211-0.211-0.234-0.211-0.539t0.211-0.539l6-6q0.234-0.211 0.539-0.211t0.539 0.211q0.211 0.234 0.211 0.539t-0.211 0.539zM14.25 30.75v7.5q0 0.328-0.211 0.539t-0.539 0.211-0.539-0.211-0.211-0.539v-7.5q0-0.328 0.211-0.539t0.539-0.211 0.539 0.211 0.211 0.539zM9 25.5q0 0.328-0.211 0.539t-0.539 0.211h-7.5q-0.328 0-0.539-0.211t-0.211-0.539 0.211-0.539 0.539-0.211h7.5q0.328 0 0.539 0.211t0.211 0.539zM38.625 28.5q0 2.812-1.992 4.758l-3.445 3.422q-1.945 1.945-4.758 1.945-2.836 0-4.781-1.992l-7.828-7.852q-0.492-0.492-0.984-1.313l5.602-0.422 6.398 6.422q0.633 0.633 1.594 0.645t1.594-0.621l3.445-3.422q0.656-0.656 0.656-1.57 0-0.937-0.656-1.594l-6.422-6.445 0.422-5.602q0.82 0.492 1.313 0.984l7.875 7.875q1.969 2.016 1.969 4.781zM24.164 11.531l-5.602 0.422-6.398-6.422q-0.656-0.656-1.594-0.656-0.914 0-1.594 0.633l-3.445 3.422q-0.656 0.656-0.656 1.57 0 0.937 0.656 1.594l6.422 6.422-0.422 5.625q-0.82-0.492-1.313-0.984l-7.875-7.875q-1.969-2.016-1.969-4.781 0-2.812 1.992-4.758l3.445-3.422q1.945-1.945 4.758-1.945 2.836 0 4.781 1.992l7.828 7.852q0.492 0.492 0.984 1.313zM39 13.5q0 0.328-0.211 0.539t-0.539 0.211h-7.5q-0.328 0-0.539-0.211t-0.211-0.539 0.211-0.539 0.539-0.211h7.5q0.328 0 0.539 0.211t0.211 0.539zM26.25 0.75v7.5q0 0.328-0.211 0.539t-0.539 0.211-0.539-0.211-0.211-0.539v-7.5q0-0.328 0.211-0.539t0.539-0.211 0.539 0.211 0.211 0.539zM35.789 4.289l-6 6q-0.258 0.211-0.539 0.211t-0.539-0.211q-0.211-0.234-0.211-0.539t0.211-0.539l6-6q0.234-0.211 0.539-0.211t0.539 0.211q0.211 0.234 0.211 0.539t-0.211 0.539z"></path>
</svg>
